<mxfile host="65bd71144e">
    <diagram id="FB4nzlBxA-Mqunqi3Js-" name="Page-1">
        <mxGraphModel dx="1820" dy="1106" grid="0" gridSize="10" guides="1" tooltips="1" connect="0" arrows="1" fold="1" page="0" pageScale="1" pageWidth="850" pageHeight="1100" background="none" math="0" shadow="0">
            <root>
                <mxCell id="0"/>
                <mxCell id="1" parent="0"/>
                <mxCell id="116" value="" style="rounded=0;whiteSpace=wrap;html=1;fillStyle=auto;strokeColor=#3A5431;fillColor=#6d8764;fontColor=#ffffff;" vertex="1" parent="1">
                    <mxGeometry x="-128" y="44" width="1166" height="941" as="geometry"/>
                </mxCell>
                <mxCell id="110" value="Loop Turnos" style="shape=umlFrame;whiteSpace=wrap;html=1;fillColor=#60a917;fontColor=#ffffff;strokeColor=#2D7600;" vertex="1" parent="1">
                    <mxGeometry x="60" y="336" width="780" height="628" as="geometry"/>
                </mxCell>
                <mxCell id="2" value="Jugador" style="shape=umlActor;verticalLabelPosition=bottom;verticalAlign=top;html=1;outlineConnect=0;" parent="1" vertex="1">
                    <mxGeometry x="77" y="60" width="30" height="60" as="geometry"/>
                </mxCell>
                <mxCell id="7" style="edgeStyle=none;html=1;exitX=0.5;exitY=1;exitDx=0;exitDy=0;endArrow=none;endFill=0;dashed=1;dashPattern=8 8;startArrow=none;" parent="1" source="21" edge="1">
                    <mxGeometry relative="1" as="geometry">
                        <mxPoint x="452" y="990" as="targetPoint"/>
                    </mxGeometry>
                </mxCell>
                <mxCell id="3" value="P:Partida" style="rounded=0;whiteSpace=wrap;html=1;" parent="1" vertex="1">
                    <mxGeometry x="377" y="61" width="150" height="60" as="geometry"/>
                </mxCell>
                <mxCell id="5" value="T:Tablero" style="rounded=0;whiteSpace=wrap;html=1;" parent="1" vertex="1">
                    <mxGeometry x="557" y="61" width="150" height="60" as="geometry"/>
                </mxCell>
                <mxCell id="9" style="edgeStyle=none;html=1;exitX=0.5;exitY=1;exitDx=0;exitDy=0;endArrow=none;endFill=0;dashed=1;dashPattern=8 8;startArrow=none;" parent="1" source="24" edge="1">
                    <mxGeometry relative="1" as="geometry">
                        <mxPoint x="632" y="1001" as="targetPoint"/>
                        <mxPoint x="462" y="131" as="sourcePoint"/>
                    </mxGeometry>
                </mxCell>
                <mxCell id="16" style="edgeStyle=none;html=1;endArrow=none;endFill=0;dashed=1;dashPattern=8 8;startArrow=none;exitX=0.5;exitY=0.5;exitDx=0;exitDy=0;exitPerimeter=0;" parent="1" source="2" edge="1">
                    <mxGeometry relative="1" as="geometry">
                        <mxPoint x="92" y="997" as="targetPoint"/>
                        <mxPoint x="7" y="410" as="sourcePoint"/>
                    </mxGeometry>
                </mxCell>
                <mxCell id="22" value="" style="edgeStyle=none;html=1;exitX=0.5;exitY=1;exitDx=0;exitDy=0;endArrow=none;endFill=0;dashed=1;dashPattern=8 8;entryX=0.5;entryY=0;entryDx=0;entryDy=0;" parent="1" source="3" target="21" edge="1">
                    <mxGeometry relative="1" as="geometry">
                        <mxPoint x="452" y="641" as="targetPoint"/>
                        <mxPoint x="452" y="121" as="sourcePoint"/>
                    </mxGeometry>
                </mxCell>
                <mxCell id="21" value="" style="rounded=1;whiteSpace=wrap;html=1;" parent="1" vertex="1">
                    <mxGeometry x="442" y="200" width="20" height="340" as="geometry"/>
                </mxCell>
                <mxCell id="25" value="" style="edgeStyle=none;html=1;exitX=0.5;exitY=1;exitDx=0;exitDy=0;endArrow=none;endFill=0;dashed=1;dashPattern=8 8;entryX=0.5;entryY=0;entryDx=0;entryDy=0;" parent="1" source="5" target="24" edge="1">
                    <mxGeometry relative="1" as="geometry">
                        <mxPoint x="632" y="641" as="targetPoint"/>
                        <mxPoint x="632" y="121" as="sourcePoint"/>
                    </mxGeometry>
                </mxCell>
                <mxCell id="24" value="" style="rounded=1;whiteSpace=wrap;html=1;" parent="1" vertex="1">
                    <mxGeometry x="622" y="225" width="20" height="325" as="geometry"/>
                </mxCell>
                <mxCell id="34" value="I:Interfaz" style="rounded=0;whiteSpace=wrap;html=1;" parent="1" vertex="1">
                    <mxGeometry x="200" y="61" width="150" height="60" as="geometry"/>
                </mxCell>
                <mxCell id="36" style="edgeStyle=none;html=1;endArrow=none;endFill=0;dashed=1;dashPattern=8 8;startArrow=none;" parent="1" source="34" edge="1">
                    <mxGeometry relative="1" as="geometry">
                        <mxPoint x="275" y="993" as="targetPoint"/>
                        <mxPoint x="275" y="111" as="sourcePoint"/>
                    </mxGeometry>
                </mxCell>
                <mxCell id="38" value="" style="rounded=1;whiteSpace=wrap;html=1;" parent="1" vertex="1">
                    <mxGeometry x="265" y="180" width="20" height="150" as="geometry"/>
                </mxCell>
                <mxCell id="39" value="Iniciar(Parametros)" style="endArrow=classic;html=1;curved=1;jumpStyle=arc;endFill=1;" parent="1" edge="1">
                    <mxGeometry x="0.0476" y="10" width="50" height="50" relative="1" as="geometry">
                        <mxPoint x="92" y="190" as="sourcePoint"/>
                        <mxPoint x="260" y="190" as="targetPoint"/>
                        <mxPoint as="offset"/>
                    </mxGeometry>
                </mxCell>
                <mxCell id="40" value="Configurar(Paramatros)" style="endArrow=classic;html=1;curved=1;jumpStyle=arc;endFill=1;" parent="1" edge="1">
                    <mxGeometry x="0.0476" y="10" width="50" height="50" relative="1" as="geometry">
                        <mxPoint x="286" y="211" as="sourcePoint"/>
                        <mxPoint x="440" y="211" as="targetPoint"/>
                        <mxPoint as="offset"/>
                    </mxGeometry>
                </mxCell>
                <mxCell id="41" value="CrearTablero(Parametros)" style="endArrow=classic;html=1;curved=1;jumpStyle=arc;endFill=1;" parent="1" edge="1">
                    <mxGeometry x="0.0476" y="10" width="50" height="50" relative="1" as="geometry">
                        <mxPoint x="466" y="232" as="sourcePoint"/>
                        <mxPoint x="620" y="232" as="targetPoint"/>
                        <mxPoint as="offset"/>
                    </mxGeometry>
                </mxCell>
                <mxCell id="42" value="CheckCelda(Coordenadas)" style="endArrow=classic;html=1;endFill=1;jumpStyle=arc;startArrow=none;startFill=0;edgeStyle=orthogonalEdgeStyle;curved=1;" parent="1" edge="1">
                    <mxGeometry x="-0.4444" y="46" width="50" height="50" relative="1" as="geometry">
                        <mxPoint x="830" y="410" as="sourcePoint"/>
                        <mxPoint x="830" y="450" as="targetPoint"/>
                        <mxPoint x="-1" y="-11" as="offset"/>
                        <Array as="points">
                            <mxPoint x="855" y="410"/>
                            <mxPoint x="855" y="450"/>
                            <mxPoint x="830" y="450"/>
                        </Array>
                    </mxGeometry>
                </mxCell>
                <mxCell id="47" value="MandarTablero(Tablero)" style="endArrow=none;html=1;curved=1;jumpStyle=arc;endFill=0;startArrow=classic;startFill=1;" parent="1" edge="1">
                    <mxGeometry x="0.0476" y="10" width="50" height="50" relative="1" as="geometry">
                        <mxPoint x="463" y="285" as="sourcePoint"/>
                        <mxPoint x="617" y="285" as="targetPoint"/>
                        <mxPoint as="offset"/>
                    </mxGeometry>
                </mxCell>
                <mxCell id="48" value="MandarTablero(Tablero)" style="endArrow=none;html=1;curved=1;jumpStyle=arc;endFill=0;startArrow=classic;startFill=1;" parent="1" edge="1">
                    <mxGeometry x="0.0476" y="10" width="50" height="50" relative="1" as="geometry">
                        <mxPoint x="284" y="299" as="sourcePoint"/>
                        <mxPoint x="438" y="299" as="targetPoint"/>
                        <mxPoint as="offset"/>
                    </mxGeometry>
                </mxCell>
                <mxCell id="50" value="MostrarTablero(Tablero)" style="endArrow=none;html=1;curved=1;jumpStyle=arc;endFill=0;startArrow=classic;startFill=1;" parent="1" edge="1">
                    <mxGeometry x="0.0476" y="10" width="50" height="50" relative="1" as="geometry">
                        <mxPoint x="92" y="320" as="sourcePoint"/>
                        <mxPoint x="263.0000000000002" y="320" as="targetPoint"/>
                        <mxPoint as="offset"/>
                    </mxGeometry>
                </mxCell>
                <mxCell id="51" value="ApretarCelda(coordenadas)" style="endArrow=classic;html=1;curved=1;jumpStyle=arc;endFill=1;" parent="1" edge="1">
                    <mxGeometry x="0.0476" y="10" width="50" height="50" relative="1" as="geometry">
                        <mxPoint x="97" y="360" as="sourcePoint"/>
                        <mxPoint x="430" y="360" as="targetPoint"/>
                        <mxPoint as="offset"/>
                    </mxGeometry>
                </mxCell>
                <mxCell id="52" value="ApretarCelda(Coordenadas)" style="endArrow=classic;html=1;curved=1;jumpStyle=arc;endFill=1;" parent="1" edge="1">
                    <mxGeometry x="0.0476" y="10" width="50" height="50" relative="1" as="geometry">
                        <mxPoint x="465" y="382" as="sourcePoint"/>
                        <mxPoint x="619" y="382" as="targetPoint"/>
                        <mxPoint as="offset"/>
                    </mxGeometry>
                </mxCell>
                <mxCell id="54" value="C:Celda" style="rounded=0;whiteSpace=wrap;html=1;" parent="1" vertex="1">
                    <mxGeometry x="740" y="61" width="150" height="60" as="geometry"/>
                </mxCell>
                <mxCell id="55" style="edgeStyle=none;html=1;exitX=0.5;exitY=1;exitDx=0;exitDy=0;endArrow=none;endFill=0;dashed=1;dashPattern=8 8;startArrow=none;" parent="1" source="58" edge="1">
                    <mxGeometry relative="1" as="geometry">
                        <mxPoint x="815" y="993" as="targetPoint"/>
                        <mxPoint x="645" y="131" as="sourcePoint"/>
                    </mxGeometry>
                </mxCell>
                <mxCell id="57" value="" style="edgeStyle=none;html=1;exitX=0.5;exitY=1;exitDx=0;exitDy=0;endArrow=none;endFill=0;dashed=1;dashPattern=8 8;entryX=0.5;entryY=0;entryDx=0;entryDy=0;startArrow=none;" parent="1" source="60" target="58" edge="1">
                    <mxGeometry relative="1" as="geometry">
                        <mxPoint x="815" y="641" as="targetPoint"/>
                        <mxPoint x="815" y="121" as="sourcePoint"/>
                    </mxGeometry>
                </mxCell>
                <mxCell id="58" value="" style="rounded=1;whiteSpace=wrap;html=1;" parent="1" vertex="1">
                    <mxGeometry x="805" y="380" width="20" height="140" as="geometry"/>
                </mxCell>
                <mxCell id="59" value="ApretarCelda(Coordenadas)" style="endArrow=classic;html=1;curved=1;jumpStyle=arc;endFill=1;" parent="1" edge="1">
                    <mxGeometry x="0.0476" y="10" width="50" height="50" relative="1" as="geometry">
                        <mxPoint x="647" y="392" as="sourcePoint"/>
                        <mxPoint x="801" y="392" as="targetPoint"/>
                        <mxPoint as="offset"/>
                    </mxGeometry>
                </mxCell>
                <mxCell id="61" value="" style="edgeStyle=none;html=1;exitX=0.5;exitY=1;exitDx=0;exitDy=0;endArrow=none;endFill=0;dashed=1;dashPattern=8 8;entryX=0.5;entryY=0;entryDx=0;entryDy=0;" parent="1" source="54" target="60" edge="1">
                    <mxGeometry relative="1" as="geometry">
                        <mxPoint x="815" y="380" as="targetPoint"/>
                        <mxPoint x="815" y="121" as="sourcePoint"/>
                    </mxGeometry>
                </mxCell>
                <mxCell id="60" value="" style="rounded=1;whiteSpace=wrap;html=1;" parent="1" vertex="1">
                    <mxGeometry x="805" y="240" width="20" height="55" as="geometry"/>
                </mxCell>
                <mxCell id="62" value="AgregarCeldas(Parametros)" style="endArrow=classic;html=1;curved=1;jumpStyle=arc;endFill=1;" parent="1" edge="1">
                    <mxGeometry x="0.0476" y="10" width="50" height="50" relative="1" as="geometry">
                        <mxPoint x="644" y="249.44" as="sourcePoint"/>
                        <mxPoint x="798" y="249.44" as="targetPoint"/>
                        <mxPoint as="offset"/>
                    </mxGeometry>
                </mxCell>
                <mxCell id="64" value="MandarTablero(Tablero)" style="endArrow=none;html=1;curved=1;jumpStyle=arc;endFill=0;startArrow=classic;startFill=1;" parent="1" edge="1">
                    <mxGeometry x="0.0476" y="10" width="50" height="50" relative="1" as="geometry">
                        <mxPoint x="645" y="276" as="sourcePoint"/>
                        <mxPoint x="799" y="276" as="targetPoint"/>
                        <mxPoint as="offset"/>
                    </mxGeometry>
                </mxCell>
                <mxCell id="65" value="AgregarBomba(Tablero)" style="endArrow=classic;html=1;endFill=1;jumpStyle=arc;startArrow=none;startFill=0;edgeStyle=orthogonalEdgeStyle;curved=1;" parent="1" edge="1">
                    <mxGeometry x="-0.4444" y="46" width="50" height="50" relative="1" as="geometry">
                        <mxPoint x="830" y="247.5" as="sourcePoint"/>
                        <mxPoint x="830" y="287.5" as="targetPoint"/>
                        <mxPoint x="-1" y="-11" as="offset"/>
                        <Array as="points">
                            <mxPoint x="855" y="247.5"/>
                            <mxPoint x="855" y="287.5"/>
                            <mxPoint x="830" y="287.5"/>
                        </Array>
                    </mxGeometry>
                </mxCell>
                <mxCell id="66" value="Alt" style="shape=umlFrame;whiteSpace=wrap;html=1;fillColor=#a20025;fontColor=#ffffff;strokeColor=#6F0000;" parent="1" vertex="1">
                    <mxGeometry x="60" y="460" width="780" height="501" as="geometry"/>
                </mxCell>
                <mxCell id="67" value="" style="line;strokeWidth=1;fillColor=none;align=left;verticalAlign=middle;spacingTop=-1;spacingLeft=3;spacingRight=3;rotatable=0;labelPosition=right;points=[];portConstraint=eastwest;strokeColor=inherit;" parent="1" vertex="1">
                    <mxGeometry x="62" y="520" width="780" height="90" as="geometry"/>
                </mxCell>
                <mxCell id="72" value="MandarResultado(bool)" style="endArrow=none;html=1;curved=1;jumpStyle=arc;endFill=0;startArrow=classic;startFill=1;" parent="1" edge="1">
                    <mxGeometry x="0.0476" y="10" width="50" height="50" relative="1" as="geometry">
                        <mxPoint x="646" y="500" as="sourcePoint"/>
                        <mxPoint x="800" y="500" as="targetPoint"/>
                        <mxPoint as="offset"/>
                    </mxGeometry>
                </mxCell>
                <mxCell id="73" value="TerminarPartida()" style="endArrow=none;html=1;curved=1;jumpStyle=arc;endFill=0;startArrow=classic;startFill=1;" parent="1" edge="1">
                    <mxGeometry x="0.0476" y="10" width="50" height="50" relative="1" as="geometry">
                        <mxPoint x="462" y="520" as="sourcePoint"/>
                        <mxPoint x="616" y="520" as="targetPoint"/>
                        <mxPoint as="offset"/>
                    </mxGeometry>
                </mxCell>
                <mxCell id="74" value="MostrarResultado()" style="endArrow=none;html=1;curved=1;jumpStyle=arc;endFill=0;startArrow=classic;startFill=1;" parent="1" edge="1">
                    <mxGeometry x="0.0476" y="10" width="50" height="50" relative="1" as="geometry">
                        <mxPoint x="285" y="520" as="sourcePoint"/>
                        <mxPoint x="439" y="520" as="targetPoint"/>
                        <mxPoint as="offset"/>
                    </mxGeometry>
                </mxCell>
                <mxCell id="75" value="" style="rounded=1;whiteSpace=wrap;html=1;" parent="1" vertex="1">
                    <mxGeometry x="265" y="500" width="20" height="40" as="geometry"/>
                </mxCell>
                <mxCell id="76" value="MostrarResultado()" style="endArrow=none;html=1;curved=1;jumpStyle=arc;endFill=0;startArrow=classic;startFill=1;" parent="1" edge="1">
                    <mxGeometry x="0.0476" y="10" width="50" height="50" relative="1" as="geometry">
                        <mxPoint x="94" y="520" as="sourcePoint"/>
                        <mxPoint x="265.0000000000002" y="520" as="targetPoint"/>
                        <mxPoint as="offset"/>
                    </mxGeometry>
                </mxCell>
                <mxCell id="78" value="" style="rounded=0;whiteSpace=wrap;html=1;" parent="1" vertex="1">
                    <mxGeometry x="805" y="565" width="20" height="85" as="geometry"/>
                </mxCell>
                <mxCell id="79" value="" style="rounded=0;whiteSpace=wrap;html=1;" parent="1" vertex="1">
                    <mxGeometry x="622" y="565" width="20" height="245" as="geometry"/>
                </mxCell>
                <mxCell id="80" value="" style="rounded=0;whiteSpace=wrap;html=1;" parent="1" vertex="1">
                    <mxGeometry x="442" y="565" width="20" height="265" as="geometry"/>
                </mxCell>
                <mxCell id="88" value="RevelarCelda()" style="endArrow=classic;html=1;endFill=1;jumpStyle=arc;startArrow=none;startFill=0;edgeStyle=orthogonalEdgeStyle;curved=1;" edge="1" parent="1">
                    <mxGeometry x="0.4434" y="20" width="50" height="50" relative="1" as="geometry">
                        <mxPoint x="825" y="590.0000000000001" as="sourcePoint"/>
                        <mxPoint x="825" y="630.0000000000001" as="targetPoint"/>
                        <mxPoint x="20" y="-20" as="offset"/>
                        <Array as="points">
                            <mxPoint x="850" y="590"/>
                            <mxPoint x="850" y="630"/>
                            <mxPoint x="825" y="630"/>
                        </Array>
                    </mxGeometry>
                </mxCell>
                <mxCell id="89" value="MandarTablero(Tablero)" style="endArrow=none;html=1;curved=1;jumpStyle=arc;endFill=0;startArrow=classic;startFill=1;" edge="1" parent="1">
                    <mxGeometry x="0.0476" y="10" width="50" height="50" relative="1" as="geometry">
                        <mxPoint x="647" y="630" as="sourcePoint"/>
                        <mxPoint x="801" y="630" as="targetPoint"/>
                        <mxPoint as="offset"/>
                    </mxGeometry>
                </mxCell>
                <mxCell id="90" value="MandarTablero(Tablero)" style="endArrow=none;html=1;curved=1;jumpStyle=arc;endFill=0;startArrow=classic;startFill=1;" edge="1" parent="1">
                    <mxGeometry x="0.0476" y="10" width="50" height="50" relative="1" as="geometry">
                        <mxPoint x="462" y="790" as="sourcePoint"/>
                        <mxPoint x="616" y="790" as="targetPoint"/>
                        <mxPoint as="offset"/>
                    </mxGeometry>
                </mxCell>
                <mxCell id="91" value="MandarTablero(Tablero)" style="endArrow=none;html=1;curved=1;jumpStyle=arc;endFill=0;startArrow=classic;startFill=1;" edge="1" parent="1">
                    <mxGeometry x="0.0476" y="10" width="50" height="50" relative="1" as="geometry">
                        <mxPoint x="288" y="800" as="sourcePoint"/>
                        <mxPoint x="442" y="800" as="targetPoint"/>
                        <mxPoint as="offset"/>
                    </mxGeometry>
                </mxCell>
                <mxCell id="92" value="" style="rounded=1;whiteSpace=wrap;html=1;" vertex="1" parent="1">
                    <mxGeometry x="265" y="780" width="20" height="60" as="geometry"/>
                </mxCell>
                <mxCell id="93" value="MostrarTablero(Tablero)" style="endArrow=none;html=1;curved=1;jumpStyle=arc;endFill=0;startArrow=classic;startFill=1;" edge="1" parent="1">
                    <mxGeometry x="0.0476" y="10" width="50" height="50" relative="1" as="geometry">
                        <mxPoint x="94" y="810" as="sourcePoint"/>
                        <mxPoint x="265" y="810" as="targetPoint"/>
                        <mxPoint as="offset"/>
                    </mxGeometry>
                </mxCell>
                <mxCell id="94" value="CheckEstadoTablero()" style="endArrow=classic;html=1;endFill=1;jumpStyle=arc;startArrow=none;startFill=0;edgeStyle=orthogonalEdgeStyle;curved=1;" edge="1" parent="1">
                    <mxGeometry x="-0.4444" y="46" width="50" height="50" relative="1" as="geometry">
                        <mxPoint x="642" y="710" as="sourcePoint"/>
                        <mxPoint x="642" y="750" as="targetPoint"/>
                        <mxPoint x="-1" y="-11" as="offset"/>
                        <Array as="points">
                            <mxPoint x="667" y="710"/>
                            <mxPoint x="667" y="750"/>
                            <mxPoint x="642" y="750"/>
                        </Array>
                    </mxGeometry>
                </mxCell>
                <mxCell id="97" value="Alt" style="shape=umlFrame;whiteSpace=wrap;html=1;fillColor=#0050ef;fontColor=#ffffff;strokeColor=#001DBC;" vertex="1" parent="1">
                    <mxGeometry x="60" y="760" width="600" height="200" as="geometry"/>
                </mxCell>
                <mxCell id="102" value="" style="line;strokeWidth=1;fillColor=none;align=left;verticalAlign=middle;spacingTop=-1;spacingLeft=3;spacingRight=3;rotatable=0;labelPosition=right;points=[];portConstraint=eastwest;strokeColor=inherit;" vertex="1" parent="1">
                    <mxGeometry x="60" y="810" width="600" height="91" as="geometry"/>
                </mxCell>
                <mxCell id="103" value="" style="rounded=0;whiteSpace=wrap;html=1;" vertex="1" parent="1">
                    <mxGeometry x="622" y="856" width="20" height="40" as="geometry"/>
                </mxCell>
                <mxCell id="104" value="" style="rounded=0;whiteSpace=wrap;html=1;" vertex="1" parent="1">
                    <mxGeometry x="442" y="856" width="20" height="54" as="geometry"/>
                </mxCell>
                <mxCell id="105" value="" style="rounded=0;whiteSpace=wrap;html=1;" vertex="1" parent="1">
                    <mxGeometry x="265" y="880" width="20" height="40" as="geometry"/>
                </mxCell>
                <mxCell id="106" value="TerminarPartida()" style="endArrow=none;html=1;curved=1;jumpStyle=arc;endFill=0;startArrow=classic;startFill=1;" edge="1" parent="1">
                    <mxGeometry x="0.0476" y="10" width="50" height="50" relative="1" as="geometry">
                        <mxPoint x="464" y="888" as="sourcePoint"/>
                        <mxPoint x="618" y="888" as="targetPoint"/>
                        <mxPoint as="offset"/>
                    </mxGeometry>
                </mxCell>
                <mxCell id="107" value="MostrarResultado()" style="endArrow=none;html=1;curved=1;jumpStyle=arc;endFill=0;startArrow=classic;startFill=1;" edge="1" parent="1">
                    <mxGeometry x="0.0476" y="10" width="50" height="50" relative="1" as="geometry">
                        <mxPoint x="285" y="893" as="sourcePoint"/>
                        <mxPoint x="439" y="893" as="targetPoint"/>
                        <mxPoint as="offset"/>
                    </mxGeometry>
                </mxCell>
                <mxCell id="109" value="MostrarResultado()" style="endArrow=none;html=1;curved=1;jumpStyle=arc;endFill=0;startArrow=classic;startFill=1;" edge="1" parent="1">
                    <mxGeometry x="0.0476" y="10" width="50" height="50" relative="1" as="geometry">
                        <mxPoint x="94.00000000000023" y="910" as="sourcePoint"/>
                        <mxPoint x="265.00000000000045" y="910" as="targetPoint"/>
                        <mxPoint as="offset"/>
                    </mxGeometry>
                </mxCell>
                <mxCell id="111" value="[CheckCelda(coordenadas) == -1] (Apreto un bomba)" style="rounded=0;whiteSpace=wrap;html=1;fillColor=none;fillStyle=auto;strokeColor=#660000;align=center;" vertex="1" parent="1">
                    <mxGeometry x="840" y="470" width="188" height="40" as="geometry"/>
                </mxCell>
                <mxCell id="112" value="Else" style="rounded=0;whiteSpace=wrap;html=1;fillColor=none;fillStyle=auto;strokeColor=#660000;" vertex="1" parent="1">
                    <mxGeometry x="840" y="570" width="60" height="27.5" as="geometry"/>
                </mxCell>
                <mxCell id="113" value="Else" style="rounded=0;whiteSpace=wrap;html=1;fillColor=none;fillStyle=auto;strokeColor=#0000CC;" vertex="1" parent="1">
                    <mxGeometry y="861" width="60" height="30" as="geometry"/>
                </mxCell>
                <mxCell id="114" value="CantidadBombas() != CantidadCeldasNoDescubiertas()" style="rounded=0;whiteSpace=wrap;html=1;fillColor=none;fillStyle=auto;strokeColor=#0000CC;" vertex="1" parent="1">
                    <mxGeometry x="-120" y="770" width="180" height="40" as="geometry"/>
                </mxCell>
            </root>
        </mxGraphModel>
    </diagram>
</mxfile>